<mxfile host="app.diagrams.net" modified="2021-07-14T18:40:44.481Z" agent="5.0 (Macintosh; Intel Mac OS X 10_15_7) AppleWebKit/537.36 (KHTML, like Gecko) Chrome/91.0.4472.114 Safari/537.36" etag="Q9U7sWY0QZR1Lq6xGDIg" version="14.6.11" type="github">
  <diagram id="6XrNnMwTjizTvmi12s9V" name="Page-1">
    <mxGraphModel dx="1186" dy="599" grid="1" gridSize="10" guides="1" tooltips="1" connect="1" arrows="1" fold="1" page="1" pageScale="1" pageWidth="827" pageHeight="1169" background="#114B5F" math="0" shadow="0">
      <root>
        <mxCell id="0" />
        <mxCell id="1" parent="0" />
        <mxCell id="sbzjjTPY3tP2-vInJ4SF-1" value="Latest Movies" style="rounded=0;whiteSpace=wrap;html=1;fillColor=#dae8fc;strokeColor=#6c8ebf;fontSize=14;fontStyle=1" vertex="1" parent="1">
          <mxGeometry x="60" y="80" width="120" height="60" as="geometry" />
        </mxCell>
        <mxCell id="sbzjjTPY3tP2-vInJ4SF-2" value="Upcoming Movies" style="rounded=0;whiteSpace=wrap;html=1;fillColor=#dae8fc;strokeColor=#6c8ebf;fontSize=14;fontStyle=1" vertex="1" parent="1">
          <mxGeometry x="320" y="80" width="120" height="60" as="geometry" />
        </mxCell>
        <mxCell id="sbzjjTPY3tP2-vInJ4SF-3" value="Latest Events" style="rounded=0;whiteSpace=wrap;html=1;fillColor=#dae8fc;strokeColor=#6c8ebf;fontSize=14;fontStyle=1" vertex="1" parent="1">
          <mxGeometry x="580" y="73" width="120" height="60" as="geometry" />
        </mxCell>
        <mxCell id="sbzjjTPY3tP2-vInJ4SF-8" value="" style="edgeStyle=orthogonalEdgeStyle;rounded=0;orthogonalLoop=1;jettySize=auto;html=1;labelBackgroundColor=#114B5F;fontColor=#33FF99;strokeColor=#FFFFFF;" edge="1" parent="1" source="sbzjjTPY3tP2-vInJ4SF-2" target="sbzjjTPY3tP2-vInJ4SF-7">
          <mxGeometry relative="1" as="geometry" />
        </mxCell>
        <mxCell id="sbzjjTPY3tP2-vInJ4SF-14" value="" style="edgeStyle=orthogonalEdgeStyle;curved=0;rounded=1;sketch=0;orthogonalLoop=1;jettySize=auto;html=1;fontColor=#E4FDE1;fillColor=#F45B69;fontStyle=1;fontSize=12;strokeColor=#FFFFFF;" edge="1" parent="1" source="sbzjjTPY3tP2-vInJ4SF-7" target="sbzjjTPY3tP2-vInJ4SF-13">
          <mxGeometry relative="1" as="geometry" />
        </mxCell>
        <mxCell id="sbzjjTPY3tP2-vInJ4SF-7" value="Movie List&amp;nbsp;" style="rounded=1;whiteSpace=wrap;html=1;fillColor=#dae8fc;strokeColor=#6c8ebf;fontSize=14;fontStyle=1" vertex="1" parent="1">
          <mxGeometry x="320" y="252" width="120" height="60" as="geometry" />
        </mxCell>
        <mxCell id="sbzjjTPY3tP2-vInJ4SF-11" value="" style="edgeStyle=orthogonalEdgeStyle;rounded=0;orthogonalLoop=1;jettySize=auto;html=1;labelBackgroundColor=#114B5F;fontColor=#33FF99;strokeColor=#FFFFFF;" edge="1" parent="1" source="sbzjjTPY3tP2-vInJ4SF-3">
          <mxGeometry relative="1" as="geometry">
            <mxPoint x="700" y="210" as="sourcePoint" />
            <mxPoint x="440" y="282" as="targetPoint" />
            <Array as="points">
              <mxPoint x="640" y="282" />
            </Array>
          </mxGeometry>
        </mxCell>
        <mxCell id="sbzjjTPY3tP2-vInJ4SF-12" value="" style="edgeStyle=orthogonalEdgeStyle;rounded=0;orthogonalLoop=1;jettySize=auto;html=1;labelBackgroundColor=#114B5F;entryX=0;entryY=0.5;entryDx=0;entryDy=0;startArrow=none;exitX=0.5;exitY=1;exitDx=0;exitDy=0;fontColor=#33FF99;strokeColor=#FFFFFF;" edge="1" parent="1" source="sbzjjTPY3tP2-vInJ4SF-1" target="sbzjjTPY3tP2-vInJ4SF-7">
          <mxGeometry relative="1" as="geometry">
            <mxPoint x="80" y="270" as="sourcePoint" />
            <mxPoint x="70" y="270" as="targetPoint" />
            <Array as="points">
              <mxPoint x="120" y="282" />
            </Array>
          </mxGeometry>
        </mxCell>
        <mxCell id="sbzjjTPY3tP2-vInJ4SF-33" value="" style="edgeStyle=orthogonalEdgeStyle;curved=0;rounded=1;sketch=0;orthogonalLoop=1;jettySize=auto;html=1;fontSize=12;fontColor=#33FF99;strokeColor=#FFFFFF;fillColor=#F45B69;" edge="1" parent="1" source="sbzjjTPY3tP2-vInJ4SF-13" target="sbzjjTPY3tP2-vInJ4SF-32">
          <mxGeometry relative="1" as="geometry" />
        </mxCell>
        <mxCell id="sbzjjTPY3tP2-vInJ4SF-13" value="Movie Item" style="rounded=1;whiteSpace=wrap;html=1;fillColor=#dae8fc;strokeColor=#6c8ebf;fontStyle=1;fontSize=14;" vertex="1" parent="1">
          <mxGeometry x="320" y="390" width="120" height="60" as="geometry" />
        </mxCell>
        <mxCell id="sbzjjTPY3tP2-vInJ4SF-16" value="Saga Middleware called&amp;nbsp; to fetch the latest movies and save the data in the Redux store" style="text;html=1;strokeColor=none;fillColor=none;align=center;verticalAlign=middle;whiteSpace=wrap;rounded=0;sketch=0;fontSize=14;fontColor=#E4FDE1;" vertex="1" parent="1">
          <mxGeometry x="120" y="178" width="180" height="30" as="geometry" />
        </mxCell>
        <mxCell id="sbzjjTPY3tP2-vInJ4SF-23" value="Send the list of items to display as a single item" style="text;html=1;strokeColor=none;fillColor=none;align=center;verticalAlign=middle;whiteSpace=wrap;rounded=0;sketch=0;fontSize=14;fontColor=#E4FDE1;" vertex="1" parent="1">
          <mxGeometry x="382" y="330" width="180" height="30" as="geometry" />
        </mxCell>
        <mxCell id="sbzjjTPY3tP2-vInJ4SF-27" value="LatestMovies Component" style="ellipse;whiteSpace=wrap;html=1;rounded=0;sketch=0;fontSize=12;strokeColor=#b46504;fillColor=#fad7ac;" vertex="1" parent="1">
          <mxGeometry x="70" y="10" width="120" height="60" as="geometry" />
        </mxCell>
        <mxCell id="sbzjjTPY3tP2-vInJ4SF-28" value="UpcomingMovies Component" style="ellipse;whiteSpace=wrap;html=1;rounded=0;sketch=0;fontSize=12;strokeColor=#b46504;fillColor=#fad7ac;" vertex="1" parent="1">
          <mxGeometry x="320" y="10" width="120" height="60" as="geometry" />
        </mxCell>
        <mxCell id="sbzjjTPY3tP2-vInJ4SF-29" value="Events Component" style="ellipse;whiteSpace=wrap;html=1;rounded=0;sketch=0;fontSize=12;strokeColor=#b46504;fillColor=#fad7ac;" vertex="1" parent="1">
          <mxGeometry x="580" y="8" width="120" height="60" as="geometry" />
        </mxCell>
        <mxCell id="sbzjjTPY3tP2-vInJ4SF-30" value="MovieItem&lt;br&gt;Component" style="ellipse;whiteSpace=wrap;html=1;rounded=0;sketch=0;fontSize=12;strokeColor=#b46504;fillColor=#fad7ac;" vertex="1" parent="1">
          <mxGeometry x="450" y="390" width="120" height="60" as="geometry" />
        </mxCell>
        <mxCell id="sbzjjTPY3tP2-vInJ4SF-31" value="MovieList&lt;br&gt;Component" style="ellipse;whiteSpace=wrap;html=1;rounded=0;sketch=0;fontSize=12;strokeColor=#b46504;fillColor=#fad7ac;" vertex="1" parent="1">
          <mxGeometry x="180" y="287" width="120" height="60" as="geometry" />
        </mxCell>
        <mxCell id="sbzjjTPY3tP2-vInJ4SF-43" style="edgeStyle=orthogonalEdgeStyle;curved=0;rounded=1;sketch=0;orthogonalLoop=1;jettySize=auto;html=1;fontSize=12;fontColor=#33FF99;strokeColor=#FFFFFF;fillColor=#F45B69;entryX=0;entryY=0.5;entryDx=0;entryDy=0;" edge="1" parent="1" source="sbzjjTPY3tP2-vInJ4SF-32" target="sbzjjTPY3tP2-vInJ4SF-34">
          <mxGeometry relative="1" as="geometry">
            <mxPoint x="195" y="809" as="targetPoint" />
            <Array as="points">
              <mxPoint x="195" y="624" />
              <mxPoint x="195" y="819" />
            </Array>
          </mxGeometry>
        </mxCell>
        <mxCell id="sbzjjTPY3tP2-vInJ4SF-44" style="edgeStyle=orthogonalEdgeStyle;curved=0;rounded=1;sketch=0;orthogonalLoop=1;jettySize=auto;html=1;fontSize=12;fontColor=#33FF99;strokeColor=#FFFFFF;fillColor=#F45B69;entryX=1;entryY=0.5;entryDx=0;entryDy=0;" edge="1" parent="1" source="sbzjjTPY3tP2-vInJ4SF-32" target="sbzjjTPY3tP2-vInJ4SF-34">
          <mxGeometry relative="1" as="geometry">
            <mxPoint x="535" y="749" as="targetPoint" />
            <Array as="points">
              <mxPoint x="565" y="624" />
              <mxPoint x="565" y="819" />
            </Array>
          </mxGeometry>
        </mxCell>
        <mxCell id="sbzjjTPY3tP2-vInJ4SF-46" value="" style="edgeStyle=orthogonalEdgeStyle;curved=0;rounded=1;sketch=0;orthogonalLoop=1;jettySize=auto;html=1;fontSize=12;fontColor=#33FF99;strokeColor=#FFFFFF;fillColor=#F45B69;" edge="1" parent="1" source="sbzjjTPY3tP2-vInJ4SF-32" target="sbzjjTPY3tP2-vInJ4SF-34">
          <mxGeometry relative="1" as="geometry">
            <Array as="points">
              <mxPoint x="380" y="750" />
              <mxPoint x="380" y="750" />
            </Array>
          </mxGeometry>
        </mxCell>
        <mxCell id="sbzjjTPY3tP2-vInJ4SF-32" value="&lt;font style=&quot;font-size: 12px&quot;&gt;Check which page user is coming from&lt;/font&gt;" style="rhombus;whiteSpace=wrap;html=1;rounded=1;fontSize=14;fontStyle=1;strokeColor=#6c8ebf;fillColor=#dae8fc;" vertex="1" parent="1">
          <mxGeometry x="300" y="529" width="160" height="160" as="geometry" />
        </mxCell>
        <mxCell id="sbzjjTPY3tP2-vInJ4SF-59" value="" style="edgeStyle=orthogonalEdgeStyle;curved=0;rounded=1;sketch=0;orthogonalLoop=1;jettySize=auto;html=1;fontSize=12;fontColor=#33FF99;strokeColor=#FFFFFF;fillColor=#F45B69;" edge="1" parent="1" source="sbzjjTPY3tP2-vInJ4SF-34" target="sbzjjTPY3tP2-vInJ4SF-58">
          <mxGeometry relative="1" as="geometry" />
        </mxCell>
        <mxCell id="sbzjjTPY3tP2-vInJ4SF-34" value="Movie Details" style="rounded=1;whiteSpace=wrap;html=1;fillColor=#dae8fc;strokeColor=#6c8ebf;fontStyle=1;fontSize=14;" vertex="1" parent="1">
          <mxGeometry x="315" y="789" width="120" height="60" as="geometry" />
        </mxCell>
        <mxCell id="sbzjjTPY3tP2-vInJ4SF-41" value="Depending on which page user is coming from, call the respective reducer to display the detail page" style="text;html=1;strokeColor=none;fillColor=none;align=center;verticalAlign=middle;whiteSpace=wrap;rounded=0;sketch=0;fontSize=14;fontColor=#E4FDE1;" vertex="1" parent="1">
          <mxGeometry x="399" y="470" width="180" height="60" as="geometry" />
        </mxCell>
        <mxCell id="sbzjjTPY3tP2-vInJ4SF-47" value="Moviedetail&lt;br&gt;Component" style="ellipse;whiteSpace=wrap;html=1;rounded=0;sketch=0;fontSize=12;strokeColor=#b46504;fillColor=#fad7ac;" vertex="1" parent="1">
          <mxGeometry x="245" y="719" width="120" height="60" as="geometry" />
        </mxCell>
        <mxCell id="sbzjjTPY3tP2-vInJ4SF-49" value="If previous page was LatestMovies, fetch the latest movies from the store" style="text;html=1;strokeColor=none;fillColor=none;align=center;verticalAlign=middle;whiteSpace=wrap;rounded=0;sketch=0;fontSize=14;fontColor=#E4FDE1;" vertex="1" parent="1">
          <mxGeometry x="10" y="687" width="180" height="60" as="geometry" />
        </mxCell>
        <mxCell id="sbzjjTPY3tP2-vInJ4SF-51" value="If previous page was LatestMovies, fetch the upcoming movies from the store" style="text;html=1;strokeColor=none;fillColor=none;align=center;verticalAlign=middle;whiteSpace=wrap;rounded=0;sketch=0;fontSize=14;fontColor=#E4FDE1;" vertex="1" parent="1">
          <mxGeometry x="381" y="691" width="180" height="60" as="geometry" />
        </mxCell>
        <mxCell id="sbzjjTPY3tP2-vInJ4SF-52" value="If previous page was LattestEvents, fetch the latest events from the store" style="text;html=1;strokeColor=none;fillColor=none;align=center;verticalAlign=middle;whiteSpace=wrap;rounded=0;sketch=0;fontSize=14;fontColor=#E4FDE1;" vertex="1" parent="1">
          <mxGeometry x="574" y="687" width="180" height="60" as="geometry" />
        </mxCell>
        <mxCell id="sbzjjTPY3tP2-vInJ4SF-54" value="Saga Middleware called&amp;nbsp; to fetch the latest Events and save the data in the Redux store" style="text;html=1;strokeColor=none;fillColor=none;align=center;verticalAlign=middle;whiteSpace=wrap;rounded=0;sketch=0;fontSize=14;fontColor=#E4FDE1;" vertex="1" parent="1">
          <mxGeometry x="645" y="175" width="180" height="30" as="geometry" />
        </mxCell>
        <mxCell id="sbzjjTPY3tP2-vInJ4SF-55" value="Saga Middleware called&amp;nbsp; to fetch the Upcoming Movies and save the data in the Redux store" style="text;html=1;strokeColor=none;fillColor=none;align=center;verticalAlign=middle;whiteSpace=wrap;rounded=0;sketch=0;fontSize=14;fontColor=#E4FDE1;" vertex="1" parent="1">
          <mxGeometry x="382" y="175" width="180" height="30" as="geometry" />
        </mxCell>
        <mxCell id="sbzjjTPY3tP2-vInJ4SF-58" value="Movie Booking confirmation page" style="rounded=1;whiteSpace=wrap;html=1;fillColor=#dae8fc;strokeColor=#6c8ebf;fontStyle=1;fontSize=14;" vertex="1" parent="1">
          <mxGeometry x="320" y="940" width="120" height="60" as="geometry" />
        </mxCell>
        <mxCell id="sbzjjTPY3tP2-vInJ4SF-60" value="Depending on the number of seat user selects, user navigate to the booking page having all the details along with the QR code." style="text;html=1;strokeColor=none;fillColor=none;align=center;verticalAlign=middle;whiteSpace=wrap;rounded=0;sketch=0;fontSize=14;fontColor=#E4FDE1;" vertex="1" parent="1">
          <mxGeometry x="396" y="849" width="180" height="60" as="geometry" />
        </mxCell>
      </root>
    </mxGraphModel>
  </diagram>
</mxfile>
